#define dragm_width 24
#define dragm_height 24
static unsigned char dragm_bits[] = {
   0xe0, 0xff, 0x07, 0xe0, 0xff, 0x07, 0xe0, 0xff, 0x07, 0xe0, 0xff, 0x07,
   0xe0, 0xff, 0x07, 0xe0, 0xff, 0x07, 0x00, 0x0f, 0x00, 0x00, 0x3f, 0x00,
   0x00, 0xff, 0x01, 0x00, 0xff, 0x07, 0x00, 0xff, 0x0f, 0x78, 0xff, 0x1f,
   0xf8, 0xff, 0x1f, 0xf8, 0xff, 0x1f, 0xf0, 0xff, 0x1f, 0xe0, 0xff, 0x1f,
   0xe0, 0xff, 0x1f, 0xe0, 0xff, 0x1f, 0xc0, 0xff, 0x0f, 0xc0, 0xff, 0x0f,
   0x80, 0xff, 0x0f, 0x80, 0xff, 0x07, 0x00, 0xff, 0x07, 0x00, 0xff, 0x07};
