#define atoms_width 12
#define atoms_height 12
static unsigned char atoms_bits[] = {
   0x00, 0x00, 0x00, 0x00, 0x00, 0x00, 0x48, 0x02, 0x4c, 0x02, 0xc8, 0x03,
   0x48, 0x02, 0x48, 0x02, 0x5c, 0x02, 0x00, 0x00, 0x00, 0x00, 0x00, 0x00};
