#define dismiss_width 10
#define dismiss_height 8
static unsigned char dismiss_bits[] = {
   0x87, 0x03, 0xce, 0x01, 0xfc, 0x00, 0x78, 0x00, 0x78, 0x00, 0xfc, 0x00,
   0xce, 0x01, 0x87, 0x03};
