#define flipxy_width 12
#define flipxy_height 12
static unsigned char flipxy_bits[] = {
   0x00, 0x00, 0x70, 0x04, 0x30, 0x02, 0x50, 0x01, 0x80, 0x00, 0x44, 0x01,
   0x28, 0x02, 0x10, 0x00, 0xa8, 0x00, 0xc4, 0x00, 0xe2, 0x00, 0x00, 0x00};
