#define rdiag_width 8
#define rdiag_height 8
static unsigned char rdiag_bits[] = {
   0x66, 0x33, 0x99, 0xcc, 0x66, 0x33, 0x99, 0xcc};
