#define y_width 12
#define y_height 12
static unsigned char y_bits[] = {
   0x00, 0x00, 0x00, 0x00, 0x0e, 0x07, 0x0c, 0x03, 0x98, 0x01, 0xf0, 0x00,
   0x60, 0x00, 0x60, 0x00, 0x60, 0x00, 0xf0, 0x00, 0x00, 0x00, 0x00, 0x00};
