#define zoomin_width 12
#define zoomin_height 12
static unsigned char zoomin_bits[] = {
   0x7c, 0x00, 0x82, 0x00, 0x11, 0x01, 0x11, 0x01, 0x7d, 0x01, 0x11, 0x01,
   0x11, 0x01, 0x82, 0x03, 0xfc, 0x07, 0x80, 0x0f, 0x00, 0x0f, 0x00, 0x06};
