#define rarrow2_width 9
#define rarrow2_height 9
static unsigned char rarrow2_bits[] = {
   0x04, 0x00, 0x0c, 0x00, 0x14, 0x00, 0x24, 0x00, 0x44, 0x00, 0x24, 0x00,
   0x14, 0x00, 0x0c, 0x00, 0x04, 0x00};
