#define rocker_width 12
#define rocker_height 12
static unsigned char rocker_bits[] = {
   0x00, 0x00, 0x00, 0x00, 0xf0, 0x00, 0x0a, 0x05, 0x06, 0x06, 0x0e, 0x07,
   0x00, 0x00, 0x00, 0x00, 0x60, 0x00, 0x00, 0x00, 0x00, 0x00, 0x00, 0x00};
