#define up_width 8
#define up_height 4
static unsigned char up_bits[] = {
   0x10, 0x38, 0x7c, 0xfe};
