#define z_width 12
#define z_height 12
static unsigned char z_bits[] = {
   0x00, 0x00, 0x00, 0x00, 0xfc, 0x03, 0x84, 0x03, 0xc0, 0x01, 0xe0, 0x00,
   0x70, 0x00, 0x38, 0x00, 0x1c, 0x02, 0xfc, 0x03, 0x00, 0x00, 0x00, 0x00};
